<?xml version="1.0" standalone="no"?>
<!DOCTYPE svg PUBLIC "-//W3C//DTD SVG 20010904//EN"
 "http://www.w3.org/TR/2001/REC-SVG-20010904/DTD/svg10.dtd">
<svg version="1.0" xmlns="http://www.w3.org/2000/svg"
 width="232.000000pt" height="232.000000pt" viewBox="0 0 232.000000 232.000000"
 preserveAspectRatio="xMidYMid meet">
<metadata>
Created by potrace 1.11, written by Peter Selinger 2001-2013
</metadata>
<g transform="translate(0.000000,232.000000) scale(0.100000,-0.100000)"
fill="#000000" stroke="none">
<path d="M509 1637 c-23 -19 -24 -22 -25 -226 -1 -113 -3 -209 -3 -213 -1 -5
-63 -8 -139 -8 -180 0 -179 0 -182 -150 0 -57 -4 -107 -6 -110 -3 -3 -25 -6
-49 -7 -84 -3 -105 -31 -100 -128 4 -53 8 -63 44 -99 l40 -40 103 -1 c67 -1
112 3 129 11 20 10 29 10 38 1 16 -16 276 -18 317 -2 24 10 34 10 47 0 21 -15
213 -13 243 3 16 8 24 8 33 -1 15 -15 511 -18 517 -2 2 5 5 39 6 75 l3 65 35
0 35 0 3 -55 c4 -104 -9 -96 161 -95 160 0 160 0 213 60 17 20 17 20 18 -3 0
-53 10 -58 124 -57 58 0 108 4 112 8 5 4 9 78 10 165 1 86 2 160 3 165 0 4 12
5 25 3 39 -7 47 14 44 106 l-3 83 -227 3 -228 2 0 191 0 191 -41 41 -41 42
-121 1 c-104 0 -126 -2 -146 -18 -23 -18 -25 -18 -44 -1 -18 17 -54 18 -472
18 -430 1 -454 0 -476 -18z"/>
</g>
</svg>
